<svg width="89" height="25" viewBox="0 0 89 25" fill="none" xmlns="http://www.w3.org/2000/svg">
<path d="M22.4585 12.2351C22.4585 6.03144 19.0718 1.25208 10.4626 1.25208H1.25204V23.2181H10.4626C19.0718 23.2181 22.4585 18.4388 22.4585 12.2351ZM16.1915 12.2351C16.1915 16.5713 13.7543 18.1856 10.3677 18.1856H7.23416V6.28465H10.3677C13.7543 6.28465 16.1915 7.89887 16.1915 12.2351Z" fill="black"/>
<path d="M23.8911 23.2181H41.2994V18.2172H29.8732V14.4508H39.9067V9.70298H29.8732V6.253H41.0145V1.25208H23.8911V23.2181Z" fill="black"/>
<path d="M61.5641 8.88008C61.5641 3.34107 58.0191 1.25208 52.5118 1.25208H42.9847V23.2181H48.9668V16.5081H52.5118C58.0191 16.5081 61.5641 14.419 61.5641 8.88008ZM55.3605 8.88008C55.3605 11.0324 54.3476 11.9186 51.9104 11.9186H48.9668V5.84153H51.9104C54.3476 5.84153 55.3605 6.72777 55.3605 8.88008Z" fill="black"/>
<path d="M62.2169 6.3796H69.1485V23.2181H75.1307V6.3796H82.0623V1.25208H62.2169V6.3796Z" fill="black"/>
<path d="M79.5766 20.1427C79.5766 22.1305 81.1857 23.7397 83.1738 23.7397C85.1614 23.7397 86.7867 22.1305 86.7867 20.1427C86.7867 18.1549 85.1614 16.53 83.1738 16.53C81.1857 16.53 79.5766 18.1549 79.5766 20.1427ZM80.2708 20.1427C80.2708 18.502 81.5643 17.161 83.1738 17.161C84.7825 17.161 86.0922 18.502 86.0922 20.1427C86.0922 21.7834 84.7825 23.1086 83.1738 23.1086C81.5643 23.1086 80.2708 21.7834 80.2708 20.1427ZM81.4855 21.9254H82.6211V20.6949H83.2685L83.9464 21.9254H85.1771L84.3567 20.474C84.7356 20.3163 85.0189 19.8903 85.0189 19.417C85.0189 18.5809 84.4827 18.1865 83.5675 18.1865H81.4855V21.9254ZM83.8674 19.4328C83.8674 19.7325 83.6787 19.8588 83.3155 19.8588H82.6211V19.0699H83.3155C83.6787 19.0699 83.8674 19.1646 83.8674 19.4328Z" fill="black"/>
</svg>
