<svg width="89" height="25" viewBox="0 0 89 25" fill="none" xmlns="http://www.w3.org/2000/svg">
<path d="M22.7387 12.2351C22.7387 6.03144 19.3521 1.25208 10.7429 1.25208H1.53232V23.2181H10.7429C19.3521 23.2181 22.7387 18.4388 22.7387 12.2351ZM16.4718 12.2351C16.4718 16.5713 14.0346 18.1856 10.648 18.1856H7.51443V6.28465H10.648C14.0346 6.28465 16.4718 7.89887 16.4718 12.2351Z" fill="white"/>
<path d="M24.1714 23.2181H41.5796V18.2172H30.1535V14.4508H40.187V9.70298H30.1535V6.253H41.2948V1.25208H24.1714V23.2181Z" fill="white"/>
<path d="M61.8444 8.88008C61.8444 3.34107 58.2994 1.25208 52.7921 1.25208H43.265V23.2181H49.2471V16.5081H52.7921C58.2994 16.5081 61.8444 14.419 61.8444 8.88008ZM55.6407 8.88008C55.6407 11.0324 54.6279 11.9186 52.1907 11.9186H49.2471V5.84153H52.1907C54.6279 5.84153 55.6407 6.72777 55.6407 8.88008Z" fill="white"/>
<path d="M62.4972 6.3796H69.4288V23.2181H75.4109V6.3796H82.3426V1.25208H62.4972V6.3796Z" fill="white"/>
<path d="M79.8569 20.1427C79.8569 22.1305 81.466 23.7397 83.4541 23.7397C85.4417 23.7397 87.0669 22.1305 87.0669 20.1427C87.0669 18.1549 85.4417 16.53 83.4541 16.53C81.466 16.53 79.8569 18.1549 79.8569 20.1427ZM80.551 20.1427C80.551 18.502 81.8446 17.161 83.4541 17.161C85.0628 17.161 86.3725 18.502 86.3725 20.1427C86.3725 21.7834 85.0628 23.1086 83.4541 23.1086C81.8446 23.1086 80.551 21.7834 80.551 20.1427ZM81.7658 21.9254H82.9014V20.6949H83.5488L84.2267 21.9254H85.4574L84.6369 20.474C85.0159 20.3163 85.2992 19.8903 85.2992 19.417C85.2992 18.5809 84.763 18.1865 83.8478 18.1865H81.7658V21.9254ZM84.1476 19.4328C84.1476 19.7325 83.959 19.8588 83.5958 19.8588H82.9014V19.0699H83.5958C83.959 19.0699 84.1476 19.1646 84.1476 19.4328Z" fill="white"/>
</svg>
